<svg width="1284" height="394" viewBox="0 0 1284 394" fill="none" xmlns="http://www.w3.org/2000/svg">
<path d="M398.6 131.8C419.267 131.8 435.133 135.467 446.2 142.8C457.267 150 462.8 161.867 462.8 178.4C462.8 195.067 457.2 207.133 446 214.6C434.8 221.933 418.8 225.6 398 225.6H388.2V272H357V135.4C363.8 134.067 371 133.133 378.6 132.6C386.2 132.067 392.867 131.8 398.6 131.8ZM400.6 158.4C398.333 158.4 396.067 158.467 393.8 158.6C391.667 158.733 389.8 158.867 388.2 159V199H398C408.8 199 416.933 197.533 422.4 194.6C427.867 191.667 430.6 186.2 430.6 178.2C430.6 174.333 429.867 171.133 428.4 168.6C427.067 166.067 425.067 164.067 422.4 162.6C419.867 161 416.733 159.933 413 159.4C409.267 158.733 405.133 158.4 400.6 158.4ZM526.311 131.8C547.111 131.8 563.044 135.533 574.111 143C585.178 150.333 590.711 161.8 590.711 177.4C590.711 187.133 588.444 195.067 583.911 201.2C579.511 207.2 573.111 211.933 564.711 215.4C567.511 218.867 570.444 222.867 573.511 227.4C576.578 231.8 579.578 236.467 582.511 241.4C585.578 246.2 588.511 251.267 591.311 256.6C594.111 261.8 596.711 266.933 599.111 272H564.111C561.578 267.467 558.978 262.867 556.311 258.2C553.778 253.533 551.111 249 548.311 244.6C545.644 240.2 542.978 236.067 540.311 232.2C537.644 228.2 534.978 224.6 532.311 221.4H516.911V272H485.711V135.4C492.511 134.067 499.511 133.133 506.711 132.6C514.044 132.067 520.578 131.8 526.311 131.8ZM528.111 158.4C525.844 158.4 523.778 158.467 521.911 158.6C520.178 158.733 518.511 158.867 516.911 159V196.6H525.711C537.444 196.6 545.844 195.133 550.911 192.2C555.978 189.267 558.511 184.267 558.511 177.2C558.511 170.4 555.911 165.6 550.711 162.8C545.644 159.867 538.111 158.4 528.111 158.4ZM619.109 272V133.4H712.709V159.6H650.309V186.8H705.709V212.4H650.309V245.8H717.309V272H619.109ZM843.198 133.4V160H801.398V272H770.198V160H728.398V133.4H843.198ZM863.25 133.4H894.45V272H863.25V133.4ZM980.731 274.8C970.998 274.8 962.598 273.467 955.531 270.8C948.465 268 942.598 264.2 937.931 259.4C933.398 254.467 929.998 248.667 927.731 242C925.598 235.2 924.531 227.733 924.531 219.6V133.4H955.731V217C955.731 222.6 956.331 227.4 957.531 231.4C958.865 235.267 960.598 238.467 962.731 241C964.998 243.4 967.665 245.133 970.731 246.2C973.931 247.267 977.398 247.8 981.131 247.8C988.731 247.8 994.865 245.467 999.531 240.8C1004.33 236.133 1006.73 228.2 1006.73 217V133.4H1037.93V219.6C1037.93 227.733 1036.8 235.2 1034.53 242C1032.26 248.8 1028.8 254.667 1024.13 259.6C1019.46 264.4 1013.53 268.133 1006.33 270.8C999.131 273.467 990.598 274.8 980.731 274.8ZM1104.74 133.4C1107.14 137.8 1109.87 143.267 1112.94 149.8C1116.14 156.2 1119.4 163.2 1122.74 170.8C1126.2 178.267 1129.6 185.933 1132.94 193.8C1136.27 201.667 1139.4 209.067 1142.34 216C1145.27 209.067 1148.4 201.667 1151.74 193.8C1155.07 185.933 1158.4 178.267 1161.74 170.8C1165.2 163.2 1168.47 156.2 1171.54 149.8C1174.74 143.267 1177.54 137.8 1179.94 133.4H1208.34C1209.67 142.6 1210.87 152.933 1211.94 164.4C1213.14 175.733 1214.14 187.6 1214.94 200C1215.87 212.267 1216.67 224.6 1217.34 237C1218.14 249.4 1218.8 261.067 1219.34 272H1188.94C1188.54 258.533 1188 243.867 1187.34 228C1186.67 212.133 1185.67 196.133 1184.34 180C1181.94 185.6 1179.27 191.8 1176.34 198.6C1173.4 205.4 1170.47 212.2 1167.54 219C1164.74 225.8 1162 232.333 1159.34 238.6C1156.67 244.733 1154.4 250 1152.54 254.4H1130.74C1128.87 250 1126.6 244.733 1123.94 238.6C1121.27 232.333 1118.47 225.8 1115.54 219C1112.74 212.2 1109.87 205.4 1106.94 198.6C1104 191.8 1101.34 185.6 1098.94 180C1097.6 196.133 1096.6 212.133 1095.94 228C1095.27 243.867 1094.74 258.533 1094.34 272H1063.94C1064.47 261.067 1065.07 249.4 1065.74 237C1066.54 224.6 1067.34 212.267 1068.14 200C1069.07 187.6 1070.07 175.733 1071.14 164.4C1072.34 152.933 1073.6 142.6 1074.94 133.4H1104.74Z" fill="black"/>
<g clip-path="url(#clip0_495_395)">
<path d="M303.867 154.852L255.739 103.876C253.461 101.598 250.613 100.174 247.48 100.174H104.52C101.387 100.174 98.2543 101.598 96.2609 103.876L48.1326 155.137C43.8609 159.693 44.1456 166.528 48.4174 171.085L168.026 290.693C170.304 292.972 173.152 294.111 176 294.111C178.848 294.111 181.98 292.972 183.974 290.693L303.583 171.085C308.139 166.528 308.139 159.409 303.867 154.852ZM123.03 171.369L144.104 232.883L82.5913 171.369H123.03ZM185.683 122.956L203.909 151.435H148.091L166.317 122.956H185.683ZM176 265.633L144.104 171.369H207.896L176 265.633ZM228.97 171.369H269.693L207.896 232.883L228.97 171.369ZM270.548 151.435H227.261L209.035 122.956H242.354L270.548 151.435ZM109.361 122.956H142.68L124.739 151.435H81.4522L109.361 122.956Z" fill="#C81E1E"/>
</g>
<defs>
<clipPath id="clip0_495_395">
<rect width="262" height="262" fill="white" transform="translate(45 66)"/>
</clipPath>
</defs>
</svg>
