<svg width="1000" height="455" viewBox="0 0 1000 455" fill="none" xmlns="http://www.w3.org/2000/svg">
<path d="M70 261.4H110V399H70V261.4ZM118.4 325.6H123.2C127.467 325.6 130.6 325.467 132.6 325.2C134.733 324.8 136.4 324 137.6 322.8C138.8 321.733 139.533 320.2 139.8 318.2C140.2 316.067 140.4 312.933 140.4 308.8C140.4 304.667 140.2 301.6 139.8 299.6C139.533 297.467 138.8 295.8 137.6 294.6C136.4 293.533 134.733 292.867 132.6 292.6C130.467 292.2 127.333 292 123.2 292H118.4V261.4H135C144.867 261.4 152.867 262.4 159 264.4C165.267 266.267 170 269.2 173.2 273.2C176.267 276.933 178.333 281.667 179.4 287.4C180.467 293 181 300.133 181 308.8C181 317.067 180.467 323.933 179.4 329.4C178.467 334.867 176.533 339.467 173.6 343.2C170.267 347.467 165.467 350.733 159.2 353C153.067 355.133 145 356.2 135 356.2H118.4V325.6ZM198.906 261.4H238.906V399H198.906V261.4ZM255.306 352.2H247.306V321.6H254.106C258.24 321.6 261.373 321.467 263.506 321.2C265.64 320.8 267.306 320.133 268.506 319.2C269.573 318.267 270.306 316.867 270.706 315C271.106 313.133 271.306 310.4 271.306 306.8C271.306 303.2 271.106 300.467 270.706 298.6C270.306 296.6 269.573 295.133 268.506 294.2C267.44 293.267 265.84 292.667 263.706 292.4C261.706 292.133 258.506 292 254.106 292H247.306V261.4H267.906C277.373 261.4 285.04 262.333 290.906 264.2C296.773 266.067 301.306 268.933 304.506 272.8C307.44 276.4 309.373 280.867 310.306 286.2C311.373 291.533 311.906 298.4 311.906 306.8C311.906 317.6 310.906 325.933 308.906 331.8C306.106 339.267 301.173 344.533 294.106 347.6L314.906 399H272.906L255.306 352.2ZM333.672 261.4H373.672V399H333.672V261.4ZM382.072 261.4H432.872V292H382.072V261.4ZM382.072 314.2H423.472V344.8H382.072V314.2ZM382.072 368.4H432.872V399H382.072V368.4ZM445.714 261.4H558.314V293.4H445.714V261.4ZM481.914 301.4H521.914V399H481.914V301.4ZM573.125 261.4H613.125V399H573.125V261.4ZM695.141 400.6C681.141 400.6 670.341 399.467 662.741 397.2C655.141 394.933 649.541 391.267 645.941 386.2C642.607 381.533 640.541 375.6 639.741 368.4C638.941 361.2 638.541 350.467 638.541 336.2V261.4H678.541V344.2C678.541 349.133 678.674 353.867 678.941 358.4C679.207 362 679.807 364.6 680.741 366.2C681.674 367.8 683.274 368.8 685.541 369.2C687.541 369.733 690.741 370 695.141 370H699.741C700.807 370 702.007 369.867 703.341 369.6V400.4C702.407 400.533 701.074 400.6 699.341 400.6H695.141ZM711.741 261.4H751.741V336.2C751.741 349.267 751.474 359.133 750.941 365.8C750.407 372.467 748.941 378.067 746.541 382.6C743.874 387.8 739.807 391.8 734.341 394.6C728.874 397.4 721.341 399.2 711.741 400V261.4ZM777.227 267.4V261.4H814.027L871.627 383.8L865.027 399H839.027L777.227 267.4ZM890.227 341.2H889.427L876.027 373.6L858.827 336.8L890.227 261.4H928.227V399H890.227V341.2ZM777.227 287.2L814.027 365.6V399H777.227V287.2Z" fill="black"/>
<g clip-path="url(#clip0_490_395)">
<path d="M600.525 95.2L562.5 54.925C560.7 53.125 558.45 52 555.975 52H443.025C440.55 52 438.075 53.125 436.5 54.925L398.475 95.425C395.1 99.025 395.325 104.425 398.7 108.025L493.2 202.525C495 204.325 497.25 205.225 499.5 205.225C501.75 205.225 504.225 204.325 505.8 202.525L600.3 108.025C603.9 104.425 603.9 98.8 600.525 95.2ZM457.65 108.25L474.3 156.85L425.7 108.25H457.65ZM507.15 70L521.55 92.5H477.45L491.85 70H507.15ZM499.5 182.725L474.3 108.25H524.7L499.5 182.725ZM541.35 108.25H573.525L524.7 156.85L541.35 108.25ZM574.2 92.5H540L525.6 70H551.925L574.2 92.5ZM446.85 70H473.175L459 92.5H424.8L446.85 70Z" fill="black"/>
</g>
<defs>
<clipPath id="clip0_490_395">
<rect width="207" height="207" fill="white" transform="translate(396 25)"/>
</clipPath>
</defs>
</svg>
